<svg width="48" height="48" viewBox="0 0 48 48" fill="none" xmlns="http://www.w3.org/2000/svg">
<circle cx="24" cy="24" r="24" fill="#832729"/>
<g clip-path="url(#clip0_1_255)">
<path fill-rule="evenodd" clip-rule="evenodd" d="M35.25 22.8C37.6631 24.1669 38.9962 25.9257 39 27.75C39 30.105 37.0519 31.9782 34.3425 33.2438C32.0662 34.305 29.1225 34.9688 25.875 35.1619V33.2869C28.8787 33.0919 31.575 32.4657 33.5475 31.5432C35.925 30.4332 37.125 29.0194 37.125 27.75C37.1185 26.7345 36.4706 25.7386 35.25 24.8682V22.8ZM12.75 22.8019V24.8644C11.5272 25.7365 10.8792 26.7345 10.875 27.7519C10.875 29.0194 12.075 30.4332 14.4525 31.5432C15.5569 32.0588 16.8975 32.4788 18.375 32.7938V34.725C16.6181 34.3819 15.0206 33.8794 13.6575 33.2438C10.95 31.9782 9 30.105 9 27.75C9.00562 25.9275 10.3388 24.1688 12.75 22.8019Z" fill="white"/>
<path fill-rule="evenodd" clip-rule="evenodd" d="M25.875 29.625V39L19.3125 34.3125L25.875 29.625Z" fill="white"/>
<path d="M29.625 9V10.9219C31.0312 10.9556 32.2687 11.0531 33.2587 11.5969C33.9881 12.0137 34.5447 12.6773 34.8281 13.4681C35.1375 14.2894 35.25 15.2681 35.25 16.5V24C35.25 25.2337 35.1375 26.2106 34.8281 27.0319C34.5206 27.855 33.9637 28.5131 33.2587 28.9031C31.8469 29.6831 30.12 29.5969 27.7613 29.625H20.2388C17.88 29.5969 16.1531 29.6812 14.7413 28.9031C14.0112 28.4867 13.4539 27.823 13.17 27.0319C12.8625 26.2106 12.75 25.2319 12.75 24V16.5C12.75 15.2663 12.8625 14.2894 13.1719 13.4681C13.4553 12.6773 14.0119 12.0137 14.7413 11.5969C16.1531 10.8169 17.88 10.9031 20.2388 10.875H25.875V9H29.625ZM27.75 12.75H20.25C17.8894 12.7781 16.3369 12.8625 15.6506 13.2413C15.3056 13.4288 15.1069 13.6388 14.925 14.1262C14.7431 14.6137 14.625 15.39 14.625 16.5V24C14.625 25.11 14.7431 25.8862 14.925 26.3737C15.1087 26.8612 15.3056 27.0694 15.6506 27.2587C16.3369 27.6375 17.8894 27.7219 20.25 27.75H27.75C30.1106 27.7219 31.6687 27.6375 32.3531 27.2587C32.6962 27.0712 32.8912 26.8612 33.075 26.3737C33.2569 25.8862 33.375 25.11 33.375 24V16.5C33.375 15.39 33.2569 14.6137 33.075 14.1262C32.8912 13.6388 32.6962 13.4306 32.3531 13.2413C31.6669 12.8625 30.1106 12.7781 27.75 12.75ZM24 14.625C25.4918 14.625 26.9226 15.2176 27.9775 16.2725C29.0324 17.3274 29.625 18.7582 29.625 20.25C29.625 21.7418 29.0324 23.1726 27.9775 24.2275C26.9226 25.2824 25.4918 25.875 24 25.875C22.5082 25.875 21.0774 25.2824 20.0225 24.2275C18.9676 23.1726 18.375 21.7418 18.375 20.25C18.375 18.7582 18.9676 17.3274 20.0225 16.2725C21.0774 15.2176 22.5082 14.625 24 14.625ZM17.4375 14.625C17.6861 14.625 17.9246 14.7238 18.1004 14.8996C18.2762 15.0754 18.375 15.3139 18.375 15.5625C18.375 15.8111 18.2762 16.0496 18.1004 16.2254C17.9246 16.4012 17.6861 16.5 17.4375 16.5C17.1889 16.5 16.9504 16.4012 16.7746 16.2254C16.5988 16.0496 16.5 15.8111 16.5 15.5625C16.5 15.3139 16.5988 15.0754 16.7746 14.8996C16.9504 14.7238 17.1889 14.625 17.4375 14.625ZM24 16.5C23.0054 16.5 22.0516 16.8951 21.3484 17.5983C20.6451 18.3016 20.25 19.2554 20.25 20.25C20.25 21.2446 20.6451 22.1984 21.3484 22.9017C22.0516 23.6049 23.0054 24 24 24C24.9946 24 25.9484 23.6049 26.6517 22.9017C27.3549 22.1984 27.75 21.2446 27.75 20.25C27.75 19.2554 27.3549 18.3016 26.6517 17.5983C25.9484 16.8951 24.9946 16.5 24 16.5ZM24 18.375C24.4973 18.375 24.9742 18.5725 25.3258 18.9242C25.6775 19.2758 25.875 19.7527 25.875 20.25C25.875 20.7473 25.6775 21.2242 25.3258 21.5758C24.9742 21.9275 24.4973 22.125 24 22.125C23.5027 22.125 23.0258 21.9275 22.6742 21.5758C22.3225 21.2242 22.125 20.7473 22.125 20.25C22.125 19.7527 22.3225 19.2758 22.6742 18.9242C23.0258 18.5725 23.5027 18.375 24 18.375Z" fill="white"/>
</g>
<defs>
<clipPath id="clip0_1_255">
<rect width="30" height="30" fill="white" transform="matrix(-1 0 0 1 39 9)"/>
</clipPath>
</defs>
</svg>
