<svg width="15" height="16" viewBox="0 0 15 16" fill="none" xmlns="http://www.w3.org/2000/svg">
<path d="M2.83333 0C2.21449 0 1.621 0.240816 1.18342 0.66947C0.745833 1.09812 0.5 1.67951 0.5 2.28571V13.7143C0.5 14.3205 0.745833 14.9019 1.18342 15.3305C1.621 15.7592 2.21449 16 2.83333 16C3.45217 16 4.04566 15.7592 4.48325 15.3305C4.92083 14.9019 5.16667 14.3205 5.16667 13.7143V2.28571C5.16667 1.67951 4.92083 1.09812 4.48325 0.66947C4.04566 0.240816 3.45217 0 2.83333 0ZM12.1667 0C11.5478 0 10.9543 0.240816 10.5168 0.66947C10.0792 1.09812 9.83333 1.67951 9.83333 2.28571V13.7143C9.83333 14.3205 10.0792 14.9019 10.5168 15.3305C10.9543 15.7592 11.5478 16 12.1667 16C12.7855 16 13.379 15.7592 13.8166 15.3305C14.2542 14.9019 14.5 14.3205 14.5 13.7143V2.28571C14.5 1.67951 14.2542 1.09812 13.8166 0.66947C13.379 0.240816 12.7855 0 12.1667 0Z" fill="#832729"/>
</svg>
