<svg width="17" height="16" viewBox="0 0 17 16" fill="none" xmlns="http://www.w3.org/2000/svg">
<g clip-path="url(#clip0_1_718)">
<path d="M8 0.5C8 0.632608 8.05268 0.759785 8.14645 0.853553C8.24021 0.947322 8.36739 1 8.5 1C10.3698 1 12.1275 1.72825 13.4495 3.0505C14.7717 4.3725 15.5 6.13025 15.5 8C15.5 9.84525 14.7895 11.5808 13.5 12.8968V11.5C13.5 11.3674 13.4473 11.2402 13.3536 11.1464C13.2598 11.0527 13.1326 11 13 11C12.8674 11 12.7402 11.0527 12.6464 11.1464C12.5527 11.2402 12.5 11.3674 12.5 11.5V14.5H15.5C15.6326 14.5 15.7598 14.4473 15.8536 14.3536C15.9473 14.2598 16 14.1326 16 14C16 13.8674 15.9473 13.7402 15.8536 13.6464C15.7598 13.5527 15.6326 13.5 15.5 13.5H14.306C15.7212 12.008 16.5 10.0642 16.5 8C16.5 5.86325 15.6677 3.85425 14.1565 2.34325C12.6458 0.83225 10.6367 0 8.5 0C8.36739 0 8.24021 0.0526784 8.14645 0.146447C8.05268 0.240215 8 0.367392 8 0.5Z" fill="#832729"/>
<path d="M2.8435 13.6567C4.35425 15.1677 6.36325 16 8.5 16C8.63261 16 8.75979 15.9473 8.85355 15.8536C8.94732 15.7598 9 15.6326 9 15.5C9 15.3674 8.94732 15.2402 8.85355 15.1464C8.75979 15.0527 8.63261 15 8.5 15C6.63025 15 4.8725 14.2718 3.5505 12.9495C2.22825 11.6275 1.5 9.86975 1.5 8C1.5 6.15475 2.2105 4.41925 3.5 3.10325V4.5C3.5 4.63261 3.55268 4.75979 3.64645 4.85355C3.74021 4.94732 3.86739 5 4 5C4.13261 5 4.25979 4.94732 4.35355 4.85355C4.44732 4.75979 4.5 4.63261 4.5 4.5V1.5H1.5C1.36739 1.5 1.24021 1.55268 1.14645 1.64645C1.05268 1.74021 1 1.86739 1 2C1 2.13261 1.05268 2.25979 1.14645 2.35355C1.24021 2.44732 1.36739 2.5 1.5 2.5H2.694C1.27875 3.992 0.5 5.93575 0.5 8C0.5 10.1368 1.33225 12.1458 2.8435 13.6567Z" fill="#832729"/>
</g>
<defs>
<clipPath id="clip0_1_718">
<rect width="16" height="16" fill="white" transform="translate(0.5)"/>
</clipPath>
</defs>
</svg>
