<svg width="15" height="16" viewBox="0 0 15 16" fill="none" xmlns="http://www.w3.org/2000/svg">
<path d="M7.49984 11.9584C8.54965 11.9584 9.55647 11.5414 10.2988 10.799C11.0411 10.0567 11.4582 9.0499 11.4582 8.00008C11.4582 6.95027 11.0411 5.94345 10.2988 5.20112C9.55647 4.45879 8.54965 4.04175 7.49984 4.04175C6.45002 4.04175 5.4432 4.45879 4.70087 5.20112C3.95854 5.94345 3.5415 6.95027 3.5415 8.00008C3.5415 9.0499 3.95854 10.0567 4.70087 10.799C5.4432 11.5414 6.45002 11.9584 7.49984 11.9584Z" fill="#E52225"/>
<path fill-rule="evenodd" clip-rule="evenodd" d="M14.625 8C14.625 8.93567 14.4407 9.86217 14.0826 10.7266C13.7246 11.5911 13.1998 12.3765 12.5381 13.0381C11.8765 13.6998 11.0911 14.2246 10.2266 14.5826C9.36217 14.9407 8.43567 15.125 7.5 15.125C6.56433 15.125 5.63783 14.9407 4.77338 14.5826C3.90894 14.2246 3.12348 13.6998 2.46186 13.0381C1.80025 12.3765 1.27542 11.5911 0.917358 10.7266C0.559293 9.86217 0.375 8.93567 0.375 8C0.375 6.11033 1.12567 4.29806 2.46186 2.96186C3.79806 1.62567 5.61033 0.875 7.5 0.875C9.38967 0.875 11.2019 1.62567 12.5381 2.96186C13.8743 4.29806 14.625 6.11033 14.625 8ZM13.0417 8C13.0417 8.72774 12.8983 9.44836 12.6198 10.1207C12.3413 10.7931 11.9331 11.404 11.4186 11.9186C10.904 12.4331 10.2931 12.8413 9.6207 13.1198C8.94836 13.3983 8.22774 13.5417 7.5 13.5417C6.77226 13.5417 6.05164 13.3983 5.3793 13.1198C4.70695 12.8413 4.09604 12.4331 3.58145 11.9186C3.06686 11.404 2.65866 10.7931 2.38017 10.1207C2.10167 9.44836 1.95833 8.72774 1.95833 8C1.95833 6.53026 2.54219 5.12071 3.58145 4.08145C4.62071 3.04219 6.03026 2.45833 7.5 2.45833C8.96974 2.45833 10.3793 3.04219 11.4186 4.08145C12.4578 5.12071 13.0417 6.53026 13.0417 8Z" fill="#E52225"/>
</svg>
